# xmcd
#
# Track frame offsets:
#	150
#	51053
#	84550
#
# Disc length: 1413 seconds
#
# Revision: 0
# Processed by: cddbd v1.5.2PL0 Copyright (c) Steve Scherf et al.
# Submitted via: EasyCDDAExtractor 9.0.0.1
#
DISCID=1b058303
DTITLE=Black Sabbath - Exposition Hall Indiana State Fairgrounds Indianapolis 
DTITLE=23-10-92 Disc 2 Master
DYEAR=1992
DGENRE=Hard Rock
TTITLE0=Heaven And Hell
TTITLE1=Neon Knights
TTITLE2=Paranoid
EXTD=
EXTT0=
EXTT1=
EXTT2=
PLAYORDER=
